<svg width="140" height="60" viewBox="0 0 140 60" fill="none" xmlns="http://www.w3.org/2000/svg">
<path d="M31.8503 30.7777C31.6404 30.9669 31.437 31.1652 31.2426 31.379L16.1357 48.0747C15.9323 48.3 16.0919 48.6592 16.3958 48.6592H26.0228C26.319 48.6592 26.6022 48.5343 26.8018 48.3142L37.155 36.873C37.1769 36.8485 37.2014 36.8253 37.2233 36.8009C39.6336 34.2013 43.3327 33.5704 46.3701 34.9069L43.1769 31.379C42.9838 31.1652 42.7829 30.9657 42.5731 30.779C39.5306 33.5073 34.8941 33.5047 31.8503 30.7777Z" fill="#0FEF9E"/>
<path d="M37.2219 36.8009L47.6395 48.3129C47.8391 48.533 48.1211 48.6579 48.4185 48.6579H58.0236C58.3275 48.6579 58.4872 48.2987 58.2837 48.0734L46.37 34.9069C43.3327 33.5691 39.6322 34.2013 37.2232 36.8009H37.2219Z" fill="#0BB376"/>
<path d="M37.2219 24.7558C37.2 24.7313 37.1756 24.7095 37.1537 24.6837L26.8005 13.2425C26.6009 13.0223 26.3189 12.8974 26.0215 12.8974H16.3945C16.0906 12.8974 15.9309 13.2567 16.1344 13.482L31.2412 30.1777C31.4344 30.3914 31.6378 30.5897 31.8477 30.7777H31.8503C34.894 33.5034 39.5292 33.506 42.5704 30.7777C42.779 30.5897 42.9812 30.3901 43.1743 30.1777L46.3674 26.6498C43.3301 27.9876 39.6296 27.3554 37.2206 24.7558H37.2219Z" fill="#28AFFF"/>
<path d="M54.707 16.7305L49.9829 11.5146C49.7743 11.2841 49.4125 11.2841 49.2039 11.5146L44.4657 16.7511C44.2842 16.9506 44.2842 17.2558 44.4657 17.4554L49.1898 22.6712C49.3984 22.9017 49.7602 22.9017 49.9688 22.6712L54.707 17.4348C54.8885 17.2352 54.8885 16.93 54.707 16.7305Z" fill="#28AFFF"/>
<path d="M37.2219 24.7558C39.6322 27.3554 43.3314 27.9863 46.3687 26.6498L47.9099 24.9464C48.0915 24.7468 48.0915 24.4416 47.9099 24.2421L43.0558 18.882C42.9168 18.7288 42.676 18.7288 42.5369 18.882L37.2219 24.7558Z" fill="#1C7AB2"/>
<path d="M71.4541 18.8124H66.5408V24.0412H71.4541V18.8124Z" fill="white"/>
<path d="M71.4541 25.7575H66.5408V42.7159H71.4541V25.7575Z" fill="white"/>
<path d="M85.4498 42.7159C83.3549 42.7159 81.5124 42.3335 79.9223 41.57C78.3335 40.8052 77.0923 39.73 76.2013 38.3421C75.3103 36.9541 74.8648 35.3228 74.8648 33.4468V18.8112H79.8502V33.4133C79.8502 34.1833 79.9944 34.8824 80.2841 35.5107C80.5725 36.1391 80.973 36.6811 81.4854 37.1369C81.9966 37.5927 82.5927 37.9416 83.2738 38.1863C83.9536 38.4296 84.6798 38.5519 85.4498 38.5519C86.2197 38.5519 86.982 38.427 87.6631 38.1773C88.3429 37.9275 88.9365 37.576 89.4425 37.1202C89.9485 36.6644 90.3425 36.1223 90.6257 35.494C90.909 34.8657 91.0506 34.1717 91.0506 33.412V18.8099H96.0361V33.4455C96.0361 35.3215 95.5906 36.9528 94.6996 38.3408C93.8086 39.7288 92.5687 40.8039 90.9785 41.5687C89.3884 42.3335 87.5472 42.7146 85.4511 42.7146L85.4498 42.7159Z" fill="white"/>
<path d="M113.697 23.1039C113.253 23.7747 113.289 24.8627 113.426 25.6249C113.562 26.3884 113.827 27.103 114.219 27.7687C114.61 28.4343 115.034 28.9519 115.36 29.3202L123.012 18.8163L116.816 18.8124L113.697 23.1039Z" fill="white"/>
<path d="M99.4455 42.7159H105.641L111.241 35.0099L116.853 42.7159H123.012L114.314 30.7815L111.21 26.5416L105.604 18.8124H99.4455L108.149 30.7648L99.4455 42.7159Z" fill="white"/>
</svg>
